<?xml version="1.0" encoding="UTF-8"?>
<svg id="Layer_2" data-name="Layer 2" xmlns="http://www.w3.org/2000/svg" viewBox="0 0 493.41 74.95">
  <defs>
    <style>
      .cls-1 {
        fill: #3e5163;
      }

      .cls-2 {
        fill: #2b313a;
      }

      .cls-3 {
        fill: #5a80a1;
      }

      .cls-4 {
        fill: #51708c;
      }

      .cls-5 {
        fill: #212125;
      }

      .cls-6 {
        fill: #476078;
      }

      .cls-7 {
        fill: #34414e;
      }
    </style>
  </defs>
  <g id="svg187628">
    <g>
      <path id="path187637" class="cls-5" d="M51.89,1.44h-20.08L0,73.51h20.8l5.66-14,5.97-15.03,9.27-23.06,9.27,23.06,5.97,15.03,5.66,14h21.21L51.89,1.44Z"/>
      <path id="path187639" class="cls-2" d="M153.5,17.71h-19.56v26.87c0,4.53-1.03,7.82-2.99,9.99s-4.43,3.19-7.52,3.19-5.35-.93-6.9-2.88c-1.65-1.85-2.37-4.94-2.37-9.16v-28.01h-19.56v31.2c0,8.55,2.06,14.93,6.38,19.15,4.32,4.32,10.09,6.38,17.3,6.38,3.19,0,6.28-.51,9.16-1.75,2.88-1.13,5.35-2.88,7.41-5.15v5.97h18.64V17.71Z"/>
      <path id="path187641" class="cls-7" d="M211.65,71.25l-4.84-13.69c-1.75,1.24-3.71,1.75-5.97,1.75-1.85,0-3.29-.51-4.32-1.65s-1.54-2.68-1.54-4.74v-18.53h12.77v-14.62h-12.77V5.25h-19.56v14.52h-8.13v14.62h8.13v18.74c0,7.1,1.96,12.46,5.87,15.96,3.91,3.6,9.47,5.35,16.78,5.35,2.68,0,5.15-.21,7.52-.82,2.37-.51,4.43-1.34,6.07-2.37h0Z"/>
      <path id="path187643" class="cls-1" d="M236.58,70.73c4.74,2.47,10.19,3.71,16.16,3.71s11.43-1.24,16.27-3.71c4.74-2.47,8.55-5.87,11.22-10.3,2.68-4.32,4.02-9.37,4.02-14.93s-1.34-10.5-4.02-14.83c-2.68-4.32-6.49-7.72-11.22-10.19-4.84-2.47-10.3-3.71-16.27-3.71s-11.53,1.24-16.27,3.71c-4.74,2.47-8.55,5.87-11.22,10.19-2.68,4.43-4.02,9.37-4.02,14.83s1.34,10.6,4.02,14.93c2.68,4.43,6.49,7.82,11.33,10.3h0ZM261.19,55.39c-2.27,2.37-5.05,3.5-8.44,3.5s-6.28-1.13-8.44-3.5c-2.27-2.37-3.29-5.66-3.29-9.88s1.03-7.31,3.29-9.68c2.16-2.27,4.94-3.5,8.44-3.5s6.18,1.24,8.44,3.5c2.16,2.37,3.29,5.56,3.29,9.68s-1.13,7.52-3.29,9.88Z"/>
      <path id="path187645" class="cls-6" d="M301.39,1.44v72.07h20.39V1.44h-20.39Z"/>
      <path id="path187647" class="cls-4" d="M404.58,14c-2.68-4.02-6.38-7.1-11.12-9.27-4.84-2.16-10.5-3.29-16.99-3.29h-32.95v16.06h31.71c4.12,0,7.31.93,9.47,2.78,2.06,1.85,3.19,4.53,3.19,7.82s-1.13,5.97-3.19,7.82c-2.16,1.85-5.35,2.68-9.47,2.68h-31.71v34.9h20.39v-18.84h12.56c6.49,0,12.15-1.03,16.99-3.19,4.74-2.16,8.44-5.25,11.12-9.27,2.57-3.91,3.91-8.65,3.91-14.11s-1.34-10.09-3.91-14.11Z"/>
      <path id="path187649" class="cls-3" d="M442.04,70.22c5.97,3.19,12.77,4.74,20.39,4.74,6.59,0,12.46-1.13,17.81-3.5,5.25-2.27,9.68-5.66,13.18-10.09l-12.97-11.74c-4.74,5.66-10.4,8.44-16.99,8.44-3.91,0-7.41-.82-10.5-2.57-3.09-1.65-5.46-4.12-7.1-7.21s-2.47-6.69-2.47-10.81.82-7.62,2.47-10.71c1.65-3.09,4.02-5.56,7.1-7.31,3.09-1.65,6.59-2.57,10.5-2.57,6.59,0,12.25,2.88,16.99,8.44l12.97-11.74c-3.5-4.32-7.93-7.72-13.18-10.09-5.35-2.27-11.22-3.5-17.81-3.5-7.62,0-14.41,1.65-20.39,4.84-5.97,3.19-10.71,7.62-14.11,13.28-3.5,5.77-5.15,12.15-5.15,19.36s1.65,13.69,5.15,19.36c3.4,5.77,8.13,10.19,14.11,13.38Z"/>
    </g>
  </g>
</svg>