<?xml version="1.0" encoding="UTF-8"?>
<svg id="Layer_1" data-name="Layer 1" xmlns="http://www.w3.org/2000/svg" viewBox="0 0 158.81 37.29">
  <defs>
    <linearGradient id="gradient-1" x1="0" y1="18.64" x2="158.81" y2="18.64" gradientUnits="userSpaceOnUse">
      <stop offset="0" stop-color="#ca6be6"/>
      <stop offset="1" stop-color="#f280b3"/>
    </linearGradient>
    <linearGradient id="gradient-2" x1="76.77" y1="22.53" x2="92.29" y2="22.53" gradientUnits="userSpaceOnUse">
      <stop offset="0" stop-color="#ca6be6"/>
      <stop offset="1" stop-color="#f280b3"/>
    </linearGradient>
    <linearGradient id="gradient-3" x1="69.05" y1="29.15" x2="87.24" y2="29.15" gradientUnits="userSpaceOnUse">
      <stop offset="0" stop-color="#ca6be6"/>
      <stop offset="1" stop-color="#f280b3"/>
    </linearGradient>
    <linearGradient id="gradient-4" x1="70.87" y1="10.66" x2="89.06" y2="10.66" gradientUnits="userSpaceOnUse">
      <stop offset="0" stop-color="#ca6be6"/>
      <stop offset="1" stop-color="#f280b3"/>
    </linearGradient>
    <linearGradient id="gradient-5" x1="65.92" y1="17.91" x2="81.44" y2="17.91" gradientUnits="userSpaceOnUse">
      <stop offset="0" stop-color="#ca6be6"/>
      <stop offset="1" stop-color="#f280b3"/>
    </linearGradient>
  </defs>
  <g>
    <path fill="url(#gradient-1)" d="M25.73,17.81v18.66h-8.46v-13.15c0-1.28-.03-2.37-.09-3.27s-.23-1.63-.52-2.19-.71-.97-1.28-1.23-1.37-.39-2.4-.39c-.83,0-1.63.17-2.41.5s-1.48.69-2.11,1.07v18.66H0V10.15h8.46v2.91c1.45-1.14,2.84-2.03,4.17-2.67,1.33-.64,2.79-.96,4.4-.96,1.73,0,3.26.39,4.59,1.16,1.33.77,2.36,1.91,3.11,3.41,1.69-1.42,3.32-2.54,4.91-3.35s3.15-1.22,4.68-1.22c2.84,0,5,.85,6.47,2.55s2.21,4.16,2.21,7.36v17.13h-8.46v-13.15c0-1.3-.03-2.39-.08-3.28s-.22-1.62-.5-2.18c-.27-.56-.69-.97-1.27-1.23s-1.39-.39-2.44-.39c-.7,0-1.39.12-2.06.36s-1.49.64-2.46,1.21Z"/>
    <path fill="url(#gradient-1)" d="M59.51,6.4h-8.93V0h8.93v6.4ZM59.27,36.47h-8.46V10.15h8.46v26.32Z"/>
    <path fill="url(#gradient-1)" d="M125.95,24.87h-19.31c.12,2.06.91,3.64,2.36,4.73s3.57,1.64,6.39,1.64c1.78,0,3.51-.32,5.18-.96s2.99-1.33,3.96-2.06h.94v6.77c-1.91.77-3.7,1.32-5.39,1.66s-3.55.52-5.6.52c-5.28,0-9.33-1.19-12.14-3.56s-4.22-5.76-4.22-10.15,1.33-7.79,4-10.32,6.32-3.81,10.96-3.81c4.28,0,7.5,1.08,9.66,3.25s3.23,5.28,3.23,9.34v2.95ZM117.56,19.92c-.05-1.77-.48-3.09-1.31-3.98s-2.12-1.34-3.87-1.34c-1.62,0-2.96.42-4.01,1.27s-1.63,2.2-1.76,4.05h10.95Z"/>
    <path fill="url(#gradient-1)" d="M158.81,23.32c0,4.33-1.26,7.74-3.79,10.23s-6.07,3.74-10.63,3.74-8.11-1.25-10.63-3.74-3.79-5.9-3.79-10.23,1.27-7.78,3.81-10.27,6.07-3.73,10.61-3.73,8.14,1.25,10.65,3.75,3.76,5.91,3.76,10.24ZM148.43,29.72c.55-.67.96-1.48,1.23-2.43s.41-2.25.41-3.93c0-1.55-.14-2.84-.42-3.89s-.67-1.88-1.17-2.51c-.5-.64-1.1-1.09-1.8-1.36s-1.46-.4-2.27-.4-1.54.11-2.17.33-1.24.66-1.82,1.31c-.52.61-.93,1.45-1.23,2.51s-.46,2.4-.46,4.01c0,1.44.13,2.68.4,3.74s.66,1.9,1.17,2.54c.5.61,1.1,1.05,1.79,1.34s1.49.42,2.38.42c.77,0,1.5-.13,2.19-.39s1.29-.69,1.77-1.3Z"/>
  </g>
  <g>
    <path fill="url(#gradient-2)" d="M76.8,14.42c.41-.41,6.95-3.68,12.68,1.64,6.37,5.92,0,15.54-.41,15.95s3.27-6.95-2.86-12.68-9.82-4.5-9.41-4.91Z"/>
    <path fill="url(#gradient-3)" d="M86.04,21.37c.18.18,2.6,7.49,0,11.04-4.35,5.92-16.63,4.51-16.98,4.02-.21-.3,6.92-.75,12.7-6.06,4.63-4.25,4.02-9.25,4.28-9Z"/>
    <path fill="url(#gradient-4)" d="M72.07,18.44c-.18-.18-2.6-7.49,0-11.04,4.35-5.92,16.63-4.51,16.98-4.02.21.3-6.92.75-12.7,6.06-4.63,4.25-4.02,9.25-4.28,9Z"/>
    <path fill="url(#gradient-5)" d="M81.41,26.02c-.41.41-6.95,3.68-12.68-1.64-6.37-5.92,0-15.54.41-15.95s-3.27,6.95,2.86,12.68c6.13,5.73,9.82,4.5,9.41,4.91Z"/>
  </g>
</svg>
