<?xml version="1.0" encoding="UTF-8"?>
<svg id="Layer_1" data-name="Layer 1" xmlns="http://www.w3.org/2000/svg" viewBox="0 0 330.93 78.86">
  <path d="M0,77.59V2.44h18.97v75.15H0ZM15.05,50.77v-14.2h14.84c1.84,0,3.51-.37,5.04-1.11,1.52-.74,2.74-1.87,3.66-3.39.92-1.52,1.38-3.34,1.38-5.46s-.46-4.03-1.38-5.51c-.92-1.48-2.14-2.61-3.66-3.39-1.52-.78-3.2-1.17-5.04-1.17h-14.84V2.44h18.02c4.88,0,9.24.95,13.09,2.86s6.91,4.66,9.17,8.27,3.39,7.95,3.39,13.04-1.13,9.33-3.39,12.93-5.32,6.38-9.17,8.32c-3.85,1.94-8.21,2.92-13.09,2.92H15.05Z"/>
  <path d="M80.77,78.65c-4.88,0-9.17-1.17-12.88-3.5-3.71-2.33-6.64-5.53-8.8-9.59-2.16-4.06-3.23-8.71-3.23-13.94s1.08-9.77,3.23-13.83c2.15-4.06,5.1-7.26,8.85-9.59,3.75-2.33,7.99-3.5,12.72-3.5,3.32,0,6.32.58,9.01,1.75,2.68,1.17,4.89,2.79,6.62,4.88,1.73,2.09,2.77,4.5,3.13,7.26v26.08c-.42,2.76-1.5,5.19-3.23,7.31-1.73,2.12-3.94,3.76-6.62,4.93-2.69,1.17-5.62,1.75-8.8,1.75ZM84.69,62.22c3.04,0,5.48-.99,7.31-2.97,1.84-1.98,2.76-4.52,2.76-7.63,0-1.98-.42-3.76-1.27-5.35-.85-1.59-2.01-2.84-3.5-3.76-1.48-.92-3.22-1.38-5.19-1.38s-3.73.46-5.25,1.38c-1.52.92-2.72,2.17-3.6,3.76-.88,1.59-1.33,3.38-1.33,5.35s.42,3.87,1.27,5.46c.85,1.59,2.05,2.85,3.6,3.76,1.55.92,3.29,1.38,5.19,1.38ZM94.13,77.59v-13.99l2.65-12.51-2.65-12.61v-12.72h18.23v51.83h-18.23Z"/>
  <path d="M139.71,78.65c-4.95,0-9.35-1.17-13.2-3.5-3.85-2.33-6.85-5.53-9.01-9.59-2.16-4.06-3.23-8.71-3.23-13.94s1.08-9.79,3.23-13.89c2.16-4.1,5.14-7.3,8.96-9.59,3.82-2.3,8.23-3.44,13.25-3.44,3.32,0,6.39.58,9.22,1.75,2.83,1.17,5.19,2.81,7.1,4.93,1.91,2.12,3.04,4.52,3.39,7.21v25.33c-.35,2.76-1.48,5.25-3.39,7.47-1.91,2.23-4.28,3.99-7.1,5.3-2.83,1.31-5.9,1.96-9.22,1.96ZM143.1,62.22c1.98,0,3.73-.46,5.25-1.38,1.52-.92,2.7-2.15,3.55-3.71.85-1.55,1.27-3.39,1.27-5.51s-.41-3.85-1.22-5.41c-.81-1.55-1.98-2.79-3.5-3.71-1.52-.92-3.27-1.38-5.25-1.38s-3.73.46-5.25,1.38c-1.52.92-2.74,2.17-3.66,3.76-.92,1.59-1.38,3.38-1.38,5.35s.44,3.87,1.33,5.46c.88,1.59,2.1,2.85,3.66,3.76,1.55.92,3.29,1.38,5.19,1.38ZM170.77,77.59h-18.23v-13.99l2.65-12.51-2.97-12.61V.32h18.55v77.27Z"/>
  <path d="M202.14,78.86c-5.87,0-11.02-1.17-15.48-3.5-4.45-2.33-7.93-5.55-10.44-9.65-2.51-4.1-3.76-8.76-3.76-13.99s1.22-9.98,3.66-14.05c2.44-4.06,5.81-7.28,10.12-9.65,4.31-2.37,9.15-3.55,14.52-3.55s9.87,1.11,13.94,3.34c4.06,2.23,7.24,5.3,9.54,9.22,2.3,3.92,3.45,8.43,3.45,13.52,0,.99-.07,2.03-.21,3.13-.14,1.1-.35,2.35-.64,3.76l-45.69.21v-11.87l38.37-.21-8.27,5.09c-.07-2.83-.5-5.19-1.27-7.1-.78-1.91-1.91-3.34-3.39-4.29-1.48-.95-3.36-1.43-5.62-1.43s-4.26.55-5.99,1.64c-1.73,1.1-3.06,2.69-3.97,4.77-.92,2.08-1.38,4.54-1.38,7.37,0,3.04.49,5.58,1.48,7.63.99,2.05,2.4,3.59,4.24,4.61,1.84,1.03,4.1,1.54,6.78,1.54,2.47,0,4.7-.41,6.68-1.22,1.98-.81,3.75-2.1,5.3-3.87l9.75,9.54c-2.69,2.97-5.85,5.21-9.49,6.73-3.64,1.52-7.72,2.28-12.24,2.28Z"/>
  <path d="M229.06,77.59V.32h18.55v77.27h-18.55Z"/>
  <path d="M262.13,19.82c-2.83,0-5.16-.97-7-2.92-1.84-1.94-2.76-4.29-2.76-7.05s.92-5.09,2.76-7c1.84-1.91,4.17-2.86,7-2.86s5.05.95,6.89,2.86c1.84,1.91,2.76,4.24,2.76,7s-.92,5.11-2.76,7.05c-1.84,1.94-4.13,2.92-6.89,2.92ZM252.7,77.59V25.76h18.55v51.83h-18.55Z"/>
  <path d="M301.99,78.86c-5.51,0-10.46-1.2-14.84-3.6-4.38-2.4-7.83-5.67-10.33-9.81-2.51-4.13-3.76-8.74-3.76-13.83s1.25-9.87,3.76-13.94c2.51-4.06,5.95-7.28,10.33-9.65,4.38-2.37,9.29-3.55,14.73-3.55s10.65,1.18,15,3.55c4.35,2.37,7.77,5.58,10.28,9.65,2.51,4.06,3.76,8.71,3.76,13.94s-1.24,9.7-3.71,13.83c-2.47,4.13-5.9,7.4-10.28,9.81-4.38,2.4-9.36,3.6-14.95,3.6ZM301.88,62.33c2.05,0,3.85-.46,5.41-1.38,1.55-.92,2.76-2.17,3.6-3.76.85-1.59,1.27-3.45,1.27-5.57s-.44-3.97-1.33-5.56c-.88-1.59-2.08-2.83-3.6-3.71-1.52-.88-3.3-1.32-5.35-1.32-1.91,0-3.62.46-5.14,1.38-1.52.92-2.72,2.17-3.6,3.76-.88,1.59-1.33,3.45-1.33,5.57s.44,3.87,1.33,5.46c.88,1.59,2.08,2.85,3.6,3.76,1.52.92,3.23,1.38,5.14,1.38Z"/>
</svg>