<?xml version="1.0" standalone="no"?>
<!DOCTYPE svg PUBLIC "-//W3C//DTD SVG 20010904//EN"
 "http://www.w3.org/TR/2001/REC-SVG-20010904/DTD/svg10.dtd">
<svg version="1.0" xmlns="http://www.w3.org/2000/svg"
 width="352.000000pt" height="80.000000pt" viewBox="0 0 352.000000 80.000000"
 preserveAspectRatio="xMidYMid meet">

<g transform="translate(0.000000,80.000000) scale(0.100000,-0.100000)"
fill="#000000" stroke="none">
<path d="M231 719 c-74 -16 -137 -31 -140 -35 -8 -8 -1 -221 10 -279 24 -126
132 -273 243 -329 l54 -27 44 22 c104 52 199 161 238 271 18 50 23 93 27 206
3 78 3 142 0 142 -4 0 -70 14 -147 30 -77 17 -153 30 -168 29 -15 0 -87 -14
-161 -30z m200 -141 l26 -73 79 -5 79 -5 -62 -48 c-35 -27 -63 -50 -63 -52 0
-2 13 -38 29 -79 16 -42 27 -76 24 -76 -2 0 -30 19 -61 43 -31 24 -79 58 -107
77 -27 18 -81 56 -120 84 l-69 51 78 5 79 5 26 73 c14 39 28 72 31 72 3 0 17
-33 31 -72z m-76 -219 l35 -21 -62 -48 c-35 -26 -65 -46 -67 -44 -5 5 43 134
51 134 4 0 23 -9 43 -21z"/>
<path d="M1082 600 c-63 -10 -87 -38 -87 -105 0 -74 24 -104 104 -131 105 -36
111 -40 111 -77 0 -51 -13 -57 -118 -57 l-93 0 3 -27 c3 -26 7 -29 63 -36 84
-11 160 0 192 27 34 30 42 105 16 156 -16 31 -28 38 -103 63 -90 30 -100 37
-100 78 0 41 17 49 112 49 87 0 88 0 88 25 0 18 -6 26 -22 29 -48 10 -125 12
-166 6z"/>
<path d="M2132 600 c-63 -10 -87 -38 -87 -105 0 -74 24 -104 104 -131 105 -36
111 -40 111 -77 0 -51 -13 -57 -118 -57 l-93 0 3 -27 c3 -26 7 -29 63 -36 84
-11 160 0 192 27 34 30 42 105 16 156 -16 31 -28 38 -103 63 -90 30 -100 37
-100 78 0 41 17 49 112 49 87 0 88 0 88 25 0 18 -6 26 -22 29 -48 10 -125 12
-166 6z"/>
<path d="M2420 385 l0 -215 35 0 34 0 3 98 3 97 88 3 87 3 0 -101 0 -100 35 0
35 0 0 215 0 215 -35 0 -35 0 0 -85 0 -85 -90 0 -90 0 0 85 0 85 -35 0 -35 0
0 -215z"/>
<path d="M3190 391 l0 -210 48 -7 c69 -11 154 -9 180 5 42 22 62 69 62 144 0
37 -7 83 -15 102 -24 59 -105 73 -168 31 l-36 -25 2 82 2 82 -37 3 -38 3 0
-210z m200 14 c18 -22 24 -97 10 -139 -13 -40 -33 -49 -96 -44 l-39 3 -3 76
c-3 73 -1 78 24 98 31 24 86 28 104 6z"/>
<path d="M1382 473 c-25 -3 -32 -8 -28 -20 3 -8 6 -19 6 -23 0 -5 39 -11 88
-12 86 -3 87 -3 90 -29 3 -26 2 -26 -72 -31 -104 -7 -126 -23 -126 -91 0 -43
5 -58 23 -75 33 -31 102 -30 150 2 37 26 47 24 47 -6 0 -13 8 -18 31 -18 l31
0 -4 131 c-3 129 -3 131 -31 155 -25 21 -37 24 -100 22 -40 0 -87 -3 -105 -5z
m156 -195 c-3 -29 -9 -35 -46 -48 -49 -17 -75 -7 -80 29 -7 43 4 51 68 51 l61
0 -3 -32z"/>
<path d="M1732 473 c-25 -3 -32 -8 -28 -20 3 -8 6 -19 6 -23 0 -5 39 -11 88
-12 86 -3 87 -3 90 -29 3 -26 2 -26 -72 -31 -104 -7 -126 -23 -126 -91 0 -43
5 -58 23 -75 33 -31 102 -30 150 2 37 26 47 24 47 -6 0 -13 8 -18 31 -18 l31
0 -4 131 c-3 129 -3 131 -31 155 -25 21 -37 24 -100 22 -40 0 -87 -3 -105 -5z
m156 -195 c-3 -29 -9 -35 -46 -48 -49 -17 -75 -7 -80 29 -7 43 4 51 68 51 l61
0 -3 -32z"/>
<path d="M2830 350 c0 -134 9 -164 53 -179 33 -12 96 0 131 25 28 19 36 18 36
-6 0 -16 7 -20 30 -20 l30 0 0 150 0 150 -35 0 -35 0 0 -105 c0 -114 0 -115
-72 -136 -23 -6 -33 -4 -49 12 -16 16 -19 33 -19 124 l0 105 -35 0 -35 0 0
-120z"/>
</g>
</svg>
