<?xml version="1.0" encoding="UTF-8"?>
<svg id="Layer_2" xmlns="http://www.w3.org/2000/svg" xmlns:xlink="http://www.w3.org/1999/xlink" viewBox="0 0 29.18 38.8">
  <defs>
    <style>
      .cls-1 {
        fill: url(#GearShift_Pink_Gradient);
      }
    </style>
    <linearGradient id="GearShift_Pink_Gradient" data-name="GearShift Pink Gradient" x1="0" y1="19.4" x2="29.18" y2="19.4" gradientUnits="userSpaceOnUse">
      <stop offset="0" stop-color="#ca6be6"/>
      <stop offset="1" stop-color="#f280b3"/>
    </linearGradient>
  </defs>
  <g id="Layer_1-2" data-name="Layer_1">
    <path class="cls-1" d="M29.18,14.3c0,2.3-.35,4.39-1.06,6.27-.7,1.88-1.63,3.44-2.77,4.66-1.19,1.29-2.54,2.26-4.05,2.92-1.51.66-3.12.99-4.85.99-1.59,0-2.94-.17-4.05-.51s-2.25-.81-3.41-1.42v11.6H0V.77h8.99v2.9c1.38-1.09,2.78-1.97,4.21-2.65,1.43-.68,3.09-1.02,4.96-1.02,3.48,0,6.19,1.27,8.12,3.82,1.93,2.54,2.9,6.04,2.9,10.48ZM19.94,14.48c0-2.7-.46-4.67-1.39-5.89-.93-1.22-2.39-1.83-4.4-1.83-.84,0-1.71.13-2.61.38-.89.26-1.75.62-2.56,1.1v13.98c.6.23,1.23.38,1.91.45.68.07,1.35.1,2.01.1,2.37,0,4.13-.69,5.29-2.07,1.16-1.38,1.74-3.45,1.74-6.22Z"/>
  </g>
</svg>